<svg width="430" height="84" viewBox="0 0 430 84" fill="none" xmlns="http://www.w3.org/2000/svg">
<g clip-path="url(#clip0_72_499)">
<rect width="433" height="84" fill="url(#paint0_linear_72_499)"/>
<path d="M190 42.5V34.4H196.075V33.05C196.075 30.8132 197.888 29 200.125 29C202.362 29 204.175 30.8132 204.175 33.05V34.4H210.25V42.5H212.95C215.187 42.5 217 44.3133 217 46.55C217 48.7867 215.187 50.6 212.95 50.6H210.25V56H190V50.6H192.7C194.937 50.6 196.75 48.7867 196.75 46.55C196.75 44.3133 194.937 42.5 192.7 42.5H190Z" fill="url(#paint1_linear_72_499)" stroke="black" stroke-width="2" stroke-linejoin="round"/>
<mask id="path-3-inside-1_72_499" fill="white">
<path d="M52.2845 42.056C51.7754 41.4218 51.0684 40.9764 50.2765 40.791C49.3965 40.558 48.4616 40.6554 47.6485 41.065C47.0868 41.3563 46.5416 41.6784 46.0155 42.03V33.844C46.0352 33.3474 45.9545 32.8519 45.7783 32.3872C45.6022 31.9225 45.3342 31.4981 44.9903 31.1393C44.6464 30.7804 44.2337 30.4946 43.7769 30.2989C43.3201 30.1031 42.8285 30.0015 42.3315 30C41.3356 30.0293 40.391 30.4486 39.7012 31.1676C39.0114 31.8865 38.6316 32.8477 38.6435 33.844V35.493C38.3341 35.4177 38.017 35.3782 37.6985 35.375C37.4565 35.375 37.2155 35.395 36.9775 35.436L36.8985 35.448C36.6865 35.488 36.4785 35.548 36.2785 35.625C36.2395 35.64 36.2035 35.658 36.1655 35.675C35.9951 35.7472 35.832 35.8356 35.6785 35.939C35.6385 35.965 35.6015 35.996 35.5635 36.024C35.4165 36.132 35.2805 36.254 35.1575 36.389C35.1445 36.403 35.1285 36.412 35.1155 36.427C35.0845 36.462 35.0655 36.503 35.0365 36.539C34.857 36.7668 34.7071 37.0164 34.5905 37.282C33.8921 36.9872 33.1178 36.9234 32.3805 37.1C32.2965 37.119 32.2185 37.151 32.1375 37.176L32.0065 37.216C31.939 36.3899 31.5878 35.6126 31.0125 35.016C30.6793 34.6878 30.2843 34.4291 29.8504 34.2547C29.4164 34.0803 28.9522 33.9937 28.4845 34C27.5385 34.0334 26.6433 34.4369 25.9917 35.1236C25.3402 35.8104 24.9842 36.7255 25.0005 37.672C25.0005 38.356 25.0195 41.372 25.0395 44.204L25.0665 48.022C25.0665 48.532 25.0725 48.955 25.0755 49.249V49.71C25.0314 51.1423 25.2998 52.567 25.8621 53.885C26.4244 55.203 27.2671 56.3827 28.3315 57.342C30.4166 59.0986 33.0697 60.0363 35.7955 59.98C37.2574 59.959 38.7004 59.6463 40.0398 59.0602C41.3792 58.4741 42.5881 57.6265 43.5955 56.567C44.7286 55.3024 45.7059 53.9064 46.5065 52.409C46.8405 51.779 47.2255 51.176 47.6575 50.609C48.7311 49.4525 49.9352 48.4243 51.2455 47.545C51.3915 47.445 51.5325 47.339 51.6635 47.245C52.037 46.9562 52.3479 46.5946 52.5774 46.182C52.8069 45.7695 52.9502 45.3146 52.9985 44.845C53.1285 43.8581 52.8727 42.8591 52.2845 42.056ZM36.1565 39.671C36.1555 39.441 36.1665 39.212 36.1905 38.984C36.1905 38.933 36.2055 38.892 36.2115 38.844C36.2285 38.722 36.2485 38.607 36.2725 38.504C36.3056 38.364 36.3508 38.2272 36.4075 38.095C36.4235 38.059 36.4395 38.019 36.4565 37.987C36.5035 37.895 36.5625 37.81 36.6315 37.733L36.6475 37.718C36.6992 37.6656 36.7569 37.6196 36.8195 37.581C36.8805 37.5406 36.946 37.5074 37.0145 37.482C37.0985 37.45 37.1855 37.426 37.2745 37.41H37.2965C37.4288 37.3887 37.5626 37.3784 37.6965 37.379C37.8928 37.364 38.0898 37.394 38.2727 37.4668C38.4555 37.5396 38.6193 37.6532 38.7515 37.799C39.1305 38.347 39.3015 39.012 39.2355 39.675V42.7C39.2355 45 38.0775 45 37.6965 45C36.8515 45 36.4715 44.846 36.2965 44.319C36.2845 44.283 36.2715 44.248 36.2625 44.209C36.238 44.1102 36.2197 44.01 36.2075 43.909C36.2075 43.881 36.1995 43.855 36.1965 43.825C36.1806 43.6721 36.1703 43.5187 36.1655 43.365V43.331C36.1595 43.141 36.1575 42.931 36.1575 42.7L36.1565 39.671ZM34.1705 39.307C34.1705 39.428 34.1565 39.543 34.1565 39.671V43.048C34.1473 43.5657 34.1932 44.083 34.2935 44.591C34.053 44.7941 33.7608 44.9264 33.4496 44.9731C33.1383 45.0199 32.8201 44.9794 32.5305 44.856C32.2146 44.7234 31.945 44.5002 31.7558 44.2146C31.5667 43.9289 31.4663 43.5936 31.4675 43.251V40.74C31.4676 40.4952 31.5196 40.2532 31.6201 40.03C31.7206 39.8067 31.8673 39.6074 32.0505 39.445C32.1397 39.362 32.2392 39.2907 32.3465 39.233C32.3885 39.209 32.4295 39.184 32.4735 39.163C32.5465 39.1305 32.6217 39.1035 32.6985 39.082C32.7385 39.067 32.7785 39.055 32.8195 39.044C33.0502 38.99 33.2897 38.9855 33.5222 39.0309C33.7548 39.0762 33.975 39.1703 34.1685 39.307H34.1705ZM50.0845 45.923V45.92C48.648 46.8883 47.3291 48.0206 46.1545 49.294C45.6345 49.956 45.1745 50.663 44.7785 51.406C44.057 52.7644 43.1761 54.0321 42.1545 55.182C41.3338 56.0476 40.3489 56.741 39.2573 57.2217C38.1656 57.7025 36.9892 57.9609 35.7965 57.982C33.5575 58.0377 31.3746 57.2775 29.6545 55.843C28.8019 55.0698 28.1294 54.119 27.6843 53.0576C27.2392 51.9962 27.0324 50.85 27.0785 49.7V49.241C27.0785 48.946 27.0725 48.524 27.0695 48.013L27.0425 44.196C27.0225 41.356 27.0035 38.353 27.0035 37.678C26.9864 37.2613 27.1308 36.8541 27.4068 36.5414C27.6828 36.2287 28.0689 36.0347 28.4845 36C28.6888 35.9925 28.8925 36.026 29.0837 36.0985C29.2748 36.171 29.4496 36.281 29.5975 36.422C29.7526 36.5895 29.8724 36.7865 29.9497 37.0012C30.027 37.216 30.0603 37.4441 30.0475 37.672V38.756C29.6713 39.3495 29.4709 40.0373 29.4695 40.74V43.26C29.4713 43.8084 29.5943 44.3497 29.8297 44.845C30.0652 45.3403 30.4073 45.7774 30.8315 46.125C30.8256 46.1554 30.8216 46.1861 30.8195 46.217C30.8385 46.4814 30.9616 46.7274 31.1619 46.901C31.3621 47.0747 31.6231 47.1617 31.8875 47.143C33.5228 47.0138 35.164 46.9748 36.8035 47.026C37.4485 47.053 38.0715 47.104 38.6585 47.178C38.5935 47.207 38.5335 47.231 38.4675 47.262C36.1155 48.3065 34.0714 49.938 32.5315 52C32.4549 52.1067 32.4001 52.2274 32.3701 52.3553C32.3401 52.4832 32.3357 52.6158 32.3569 52.7454C32.3999 53.0072 32.545 53.2412 32.7605 53.396C32.976 53.5508 33.2442 53.6136 33.506 53.5706C33.7678 53.5277 34.0018 53.3825 34.1565 53.167C35.4938 51.386 37.2656 49.9778 39.3025 49.077C39.9847 48.7608 40.6885 48.4935 41.4085 48.277C41.6725 48.198 41.8825 48.144 42.0235 48.11L42.1795 48.074L42.2155 48.066H42.2215C42.4233 48.0268 42.6081 47.9264 42.7507 47.7784C42.8934 47.6305 42.987 47.4421 43.0188 47.2391C43.0506 47.036 43.0191 46.8281 42.9285 46.6436C42.8379 46.4591 42.6927 46.307 42.5125 46.208C41.8848 45.8792 41.2163 45.6348 40.5245 45.481C41.0194 44.6399 41.2647 43.6753 41.2315 42.7V39.671C41.2689 38.7509 41.064 37.8371 40.6375 37.021V33.844C40.6276 33.3775 40.7983 32.9252 41.1139 32.5815C41.4296 32.2379 41.8659 32.0296 42.3315 32C42.5663 32.001 42.7984 32.0505 43.0131 32.1456C43.2278 32.2407 43.4204 32.3792 43.5789 32.5525C43.7374 32.7257 43.8583 32.9299 43.934 33.1522C44.0096 33.3745 44.0384 33.61 44.0185 33.844V43.344C44.0005 43.727 44.1245 44.102 44.3665 44.399C44.5162 44.5651 44.7098 44.6856 44.9249 44.7464C45.1401 44.8073 45.368 44.8061 45.5825 44.743C45.7755 44.686 45.9555 44.595 46.1155 44.474C46.1695 44.435 46.2155 44.398 46.2455 44.374L46.2855 44.337L46.2965 44.328C46.9946 43.7458 47.7589 43.2481 48.5735 42.845C48.952 42.6606 49.3849 42.6211 49.7905 42.734C50.1395 42.809 50.4545 42.993 50.6905 43.26C50.9685 43.648 51.0865 44.128 51.0215 44.601C51.0067 44.7992 50.9527 44.9925 50.8626 45.1697C50.7724 45.3468 50.648 45.5043 50.4965 45.633L50.0845 45.923Z"/>
</mask>
<path d="M52.2845 42.056C51.7754 41.4218 51.0684 40.9764 50.2765 40.791C49.3965 40.558 48.4616 40.6554 47.6485 41.065C47.0868 41.3563 46.5416 41.6784 46.0155 42.03V33.844C46.0352 33.3474 45.9545 32.8519 45.7783 32.3872C45.6022 31.9225 45.3342 31.4981 44.9903 31.1393C44.6464 30.7804 44.2337 30.4946 43.7769 30.2989C43.3201 30.1031 42.8285 30.0015 42.3315 30C41.3356 30.0293 40.391 30.4486 39.7012 31.1676C39.0114 31.8865 38.6316 32.8477 38.6435 33.844V35.493C38.3341 35.4177 38.017 35.3782 37.6985 35.375C37.4565 35.375 37.2155 35.395 36.9775 35.436L36.8985 35.448C36.6865 35.488 36.4785 35.548 36.2785 35.625C36.2395 35.64 36.2035 35.658 36.1655 35.675C35.9951 35.7472 35.832 35.8356 35.6785 35.939C35.6385 35.965 35.6015 35.996 35.5635 36.024C35.4165 36.132 35.2805 36.254 35.1575 36.389C35.1445 36.403 35.1285 36.412 35.1155 36.427C35.0845 36.462 35.0655 36.503 35.0365 36.539C34.857 36.7668 34.7071 37.0164 34.5905 37.282C33.8921 36.9872 33.1178 36.9234 32.3805 37.1C32.2965 37.119 32.2185 37.151 32.1375 37.176L32.0065 37.216C31.939 36.3899 31.5878 35.6126 31.0125 35.016C30.6793 34.6878 30.2843 34.4291 29.8504 34.2547C29.4164 34.0803 28.9522 33.9937 28.4845 34C27.5385 34.0334 26.6433 34.4369 25.9917 35.1236C25.3402 35.8104 24.9842 36.7255 25.0005 37.672C25.0005 38.356 25.0195 41.372 25.0395 44.204L25.0665 48.022C25.0665 48.532 25.0725 48.955 25.0755 49.249V49.71C25.0314 51.1423 25.2998 52.567 25.8621 53.885C26.4244 55.203 27.2671 56.3827 28.3315 57.342C30.4166 59.0986 33.0697 60.0363 35.7955 59.98C37.2574 59.959 38.7004 59.6463 40.0398 59.0602C41.3792 58.4741 42.5881 57.6265 43.5955 56.567C44.7286 55.3024 45.7059 53.9064 46.5065 52.409C46.8405 51.779 47.2255 51.176 47.6575 50.609C48.7311 49.4525 49.9352 48.4243 51.2455 47.545C51.3915 47.445 51.5325 47.339 51.6635 47.245C52.037 46.9562 52.3479 46.5946 52.5774 46.182C52.8069 45.7695 52.9502 45.3146 52.9985 44.845C53.1285 43.8581 52.8727 42.8591 52.2845 42.056ZM36.1565 39.671C36.1555 39.441 36.1665 39.212 36.1905 38.984C36.1905 38.933 36.2055 38.892 36.2115 38.844C36.2285 38.722 36.2485 38.607 36.2725 38.504C36.3056 38.364 36.3508 38.2272 36.4075 38.095C36.4235 38.059 36.4395 38.019 36.4565 37.987C36.5035 37.895 36.5625 37.81 36.6315 37.733L36.6475 37.718C36.6992 37.6656 36.7569 37.6196 36.8195 37.581C36.8805 37.5406 36.946 37.5074 37.0145 37.482C37.0985 37.45 37.1855 37.426 37.2745 37.41H37.2965C37.4288 37.3887 37.5626 37.3784 37.6965 37.379C37.8928 37.364 38.0898 37.394 38.2727 37.4668C38.4555 37.5396 38.6193 37.6532 38.7515 37.799C39.1305 38.347 39.3015 39.012 39.2355 39.675V42.7C39.2355 45 38.0775 45 37.6965 45C36.8515 45 36.4715 44.846 36.2965 44.319C36.2845 44.283 36.2715 44.248 36.2625 44.209C36.238 44.1102 36.2197 44.01 36.2075 43.909C36.2075 43.881 36.1995 43.855 36.1965 43.825C36.1806 43.6721 36.1703 43.5187 36.1655 43.365V43.331C36.1595 43.141 36.1575 42.931 36.1575 42.7L36.1565 39.671ZM34.1705 39.307C34.1705 39.428 34.1565 39.543 34.1565 39.671V43.048C34.1473 43.5657 34.1932 44.083 34.2935 44.591C34.053 44.7941 33.7608 44.9264 33.4496 44.9731C33.1383 45.0199 32.8201 44.9794 32.5305 44.856C32.2146 44.7234 31.945 44.5002 31.7558 44.2146C31.5667 43.9289 31.4663 43.5936 31.4675 43.251V40.74C31.4676 40.4952 31.5196 40.2532 31.6201 40.03C31.7206 39.8067 31.8673 39.6074 32.0505 39.445C32.1397 39.362 32.2392 39.2907 32.3465 39.233C32.3885 39.209 32.4295 39.184 32.4735 39.163C32.5465 39.1305 32.6217 39.1035 32.6985 39.082C32.7385 39.067 32.7785 39.055 32.8195 39.044C33.0502 38.99 33.2897 38.9855 33.5222 39.0309C33.7548 39.0762 33.975 39.1703 34.1685 39.307H34.1705ZM50.0845 45.923V45.92C48.648 46.8883 47.3291 48.0206 46.1545 49.294C45.6345 49.956 45.1745 50.663 44.7785 51.406C44.057 52.7644 43.1761 54.0321 42.1545 55.182C41.3338 56.0476 40.3489 56.741 39.2573 57.2217C38.1656 57.7025 36.9892 57.9609 35.7965 57.982C33.5575 58.0377 31.3746 57.2775 29.6545 55.843C28.8019 55.0698 28.1294 54.119 27.6843 53.0576C27.2392 51.9962 27.0324 50.85 27.0785 49.7V49.241C27.0785 48.946 27.0725 48.524 27.0695 48.013L27.0425 44.196C27.0225 41.356 27.0035 38.353 27.0035 37.678C26.9864 37.2613 27.1308 36.8541 27.4068 36.5414C27.6828 36.2287 28.0689 36.0347 28.4845 36C28.6888 35.9925 28.8925 36.026 29.0837 36.0985C29.2748 36.171 29.4496 36.281 29.5975 36.422C29.7526 36.5895 29.8724 36.7865 29.9497 37.0012C30.027 37.216 30.0603 37.4441 30.0475 37.672V38.756C29.6713 39.3495 29.4709 40.0373 29.4695 40.74V43.26C29.4713 43.8084 29.5943 44.3497 29.8297 44.845C30.0652 45.3403 30.4073 45.7774 30.8315 46.125C30.8256 46.1554 30.8216 46.1861 30.8195 46.217C30.8385 46.4814 30.9616 46.7274 31.1619 46.901C31.3621 47.0747 31.6231 47.1617 31.8875 47.143C33.5228 47.0138 35.164 46.9748 36.8035 47.026C37.4485 47.053 38.0715 47.104 38.6585 47.178C38.5935 47.207 38.5335 47.231 38.4675 47.262C36.1155 48.3065 34.0714 49.938 32.5315 52C32.4549 52.1067 32.4001 52.2274 32.3701 52.3553C32.3401 52.4832 32.3357 52.6158 32.3569 52.7454C32.3999 53.0072 32.545 53.2412 32.7605 53.396C32.976 53.5508 33.2442 53.6136 33.506 53.5706C33.7678 53.5277 34.0018 53.3825 34.1565 53.167C35.4938 51.386 37.2656 49.9778 39.3025 49.077C39.9847 48.7608 40.6885 48.4935 41.4085 48.277C41.6725 48.198 41.8825 48.144 42.0235 48.11L42.1795 48.074L42.2155 48.066H42.2215C42.4233 48.0268 42.6081 47.9264 42.7507 47.7784C42.8934 47.6305 42.987 47.4421 43.0188 47.2391C43.0506 47.036 43.0191 46.8281 42.9285 46.6436C42.8379 46.4591 42.6927 46.307 42.5125 46.208C41.8848 45.8792 41.2163 45.6348 40.5245 45.481C41.0194 44.6399 41.2647 43.6753 41.2315 42.7V39.671C41.2689 38.7509 41.064 37.8371 40.6375 37.021V33.844C40.6276 33.3775 40.7983 32.9252 41.1139 32.5815C41.4296 32.2379 41.8659 32.0296 42.3315 32C42.5663 32.001 42.7984 32.0505 43.0131 32.1456C43.2278 32.2407 43.4204 32.3792 43.5789 32.5525C43.7374 32.7257 43.8583 32.9299 43.934 33.1522C44.0096 33.3745 44.0384 33.61 44.0185 33.844V43.344C44.0005 43.727 44.1245 44.102 44.3665 44.399C44.5162 44.5651 44.7098 44.6856 44.9249 44.7464C45.1401 44.8073 45.368 44.8061 45.5825 44.743C45.7755 44.686 45.9555 44.595 46.1155 44.474C46.1695 44.435 46.2155 44.398 46.2455 44.374L46.2855 44.337L46.2965 44.328C46.9946 43.7458 47.7589 43.2481 48.5735 42.845C48.952 42.6606 49.3849 42.6211 49.7905 42.734C50.1395 42.809 50.4545 42.993 50.6905 43.26C50.9685 43.648 51.0865 44.128 51.0215 44.601C51.0067 44.7992 50.9527 44.9925 50.8626 45.1697C50.7724 45.3468 50.648 45.5043 50.4965 45.633L50.0845 45.923Z" fill="#BBA9EF" stroke="black" stroke-width="2" mask="url(#path-3-inside-1_72_499)"/>
<path d="M347.267 39.8L344.333 38.45L340.667 42.5M353.133 52.602C352.307 53.6555 351.221 54.513 349.963 55.1038C348.706 55.6946 347.314 56.0018 345.903 56C340.985 56 337 52.3482 337 47.8433C337 46.662 337.241 45.5388 337.733 44.525M348.953 37.1L347.847 39.5921C346.724 42.1287 346.162 43.3964 346.802 44.2982C347.441 45.2 348.902 45.2 351.824 45.2C352.841 45.2 353.824 44.957 354.39 45.8696L359 53.3M350.933 34.4C350.155 34.4 349.409 34.1155 348.859 33.6092C348.309 33.1028 348 32.4161 348 31.7C348 30.9839 348.309 30.2972 348.859 29.7908C349.409 29.2845 350.155 29 350.933 29C351.711 29 352.457 29.2845 353.008 29.7908C353.558 30.2972 353.867 30.9839 353.867 31.7C353.867 32.4161 353.558 33.1028 353.008 33.6092C352.457 34.1155 351.711 34.4 350.933 34.4Z" stroke="black" stroke-width="2" stroke-linecap="round" stroke-linejoin="round"/>
</g>
<defs>
<linearGradient id="paint0_linear_72_499" x1="0" y1="42" x2="433" y2="42" gradientUnits="userSpaceOnUse">
<stop stop-color="#E0D9F7"/>
<stop offset="1" stop-color="#E0D9F7"/>
</linearGradient>
<linearGradient id="paint1_linear_72_499" x1="203.5" y1="29" x2="203.5" y2="56" gradientUnits="userSpaceOnUse">
<stop stop-color="#E0D9F7"/>
<stop offset="1" stop-color="#BBA9EF"/>
</linearGradient>
<clipPath id="clip0_72_499">
<rect width="433" height="84" fill="white"/>
</clipPath>
</defs>
</svg>
