<svg width="430" height="84" viewBox="0 0 430 84" fill="none" xmlns="http://www.w3.org/2000/svg">
<g clip-path="url(#clip0_61_373)">
<rect x="-3" width="436" height="84" fill="url(#paint0_linear_61_373)"/>
<path d="M188.316 42.5V34.4H194.433V33.05C194.433 30.8132 196.259 29 198.512 29C200.764 29 202.59 30.8132 202.59 33.05V34.4H208.707V42.5H211.425C213.678 42.5 215.503 44.3133 215.503 46.55C215.503 48.7867 213.678 50.6 211.425 50.6H208.707V56H188.316V50.6H191.035C193.287 50.6 195.113 48.7867 195.113 46.55C195.113 44.3133 193.287 42.5 191.035 42.5H188.316Z" fill="url(#paint1_linear_61_373)" stroke="black" stroke-width="2" stroke-linejoin="round"/>
<mask id="path-3-inside-1_61_373" fill="white">
<path d="M49.6468 42.056C49.1341 41.4218 48.4223 40.9764 47.6249 40.791C46.7387 40.558 45.7973 40.6554 44.9787 41.065C44.4131 41.3563 43.8641 41.6784 43.3344 42.03V33.844C43.3541 33.3474 43.2729 32.8519 43.0955 32.3872C42.9181 31.9225 42.6483 31.4981 42.302 31.1393C41.9557 30.7804 41.5402 30.4946 41.0802 30.2989C40.6202 30.1031 40.1253 30.0015 39.6248 30C38.622 30.0293 37.6708 30.4486 36.9763 31.1676C36.2817 31.8865 35.8992 32.8477 35.9113 33.844V35.493C35.5997 35.4177 35.2804 35.3782 34.9597 35.375C34.7161 35.375 34.4734 35.395 34.2337 35.436L34.1542 35.448C33.9407 35.488 33.7313 35.548 33.5299 35.625C33.4906 35.64 33.4544 35.658 33.4161 35.675C33.2445 35.7472 33.0803 35.8356 32.9257 35.939C32.8855 35.965 32.8482 35.996 32.8099 36.024C32.6619 36.132 32.525 36.254 32.4011 36.389C32.388 36.403 32.3719 36.412 32.3588 36.427C32.3276 36.462 32.3085 36.503 32.2793 36.539C32.0985 36.7668 31.9476 37.0164 31.8302 37.282C31.127 36.9872 30.3472 36.9234 29.6049 37.1C29.5203 37.119 29.4418 37.151 29.3602 37.176L29.2283 37.216C29.1603 36.3899 28.8067 35.6126 28.2274 35.016C27.8919 34.6878 27.4941 34.4291 27.0572 34.2547C26.6202 34.0803 26.1528 33.9937 25.6819 34C24.7293 34.0334 23.8279 34.4369 23.1718 35.1236C22.5157 35.8104 22.1573 36.7255 22.1738 37.672C22.1738 38.356 22.1929 41.372 22.213 44.204L22.2402 48.022C22.2402 48.532 22.2463 48.955 22.2493 49.249V49.71C22.2048 51.1423 22.4751 52.567 23.0413 53.885C23.6075 55.203 24.456 56.3827 25.5278 57.342C27.6274 59.0986 30.2989 60.0363 33.0435 59.98C34.5155 59.959 35.9685 59.6463 37.3172 59.0602C38.6659 58.4741 39.8832 57.6265 40.8976 56.567C42.0385 55.3024 43.0226 53.9064 43.8288 52.409C44.1651 51.779 44.5527 51.176 44.9877 50.609C46.0688 49.4525 47.2812 48.4243 48.6006 47.545C48.7476 47.445 48.8896 47.339 49.0215 47.245C49.3976 46.9562 49.7106 46.5946 49.9417 46.182C50.1728 45.7695 50.317 45.3146 50.3657 44.845C50.4966 43.8581 50.2391 42.8591 49.6468 42.056ZM33.4071 39.671C33.406 39.441 33.4171 39.212 33.4413 38.984C33.4413 38.933 33.4564 38.892 33.4624 38.844C33.4796 38.722 33.4997 38.607 33.5239 38.504C33.5572 38.364 33.6027 38.2272 33.6598 38.095C33.6759 38.059 33.692 38.019 33.7091 37.987C33.7565 37.895 33.8159 37.81 33.8853 37.733L33.9015 37.718C33.9534 37.6656 34.0116 37.6196 34.0746 37.581C34.1361 37.5406 34.2019 37.5074 34.271 37.482C34.3556 37.45 34.4432 37.426 34.5328 37.41H34.5549C34.6881 37.3887 34.8228 37.3784 34.9577 37.379C35.1553 37.364 35.3538 37.394 35.5379 37.4668C35.722 37.5396 35.8869 37.6532 36.02 37.799C36.4017 38.347 36.5738 39.012 36.5074 39.675V42.7C36.5074 45 35.3414 45 34.9577 45C34.1069 45 33.7242 44.846 33.548 44.319C33.5359 44.283 33.5228 44.248 33.5138 44.209C33.4891 44.1102 33.4706 44.01 33.4584 43.909C33.4584 43.881 33.4503 43.855 33.4473 43.825C33.4313 43.6721 33.4209 43.5187 33.4161 43.365V43.331C33.4101 43.141 33.4081 42.931 33.4081 42.7L33.4071 39.671ZM31.4073 39.307C31.4073 39.428 31.3932 39.543 31.3932 39.671V43.048C31.3839 43.5657 31.4301 44.083 31.5311 44.591C31.289 44.7941 30.9948 44.9264 30.6813 44.9731C30.3679 45.0199 30.0475 44.9794 29.7559 44.856C29.4378 44.7234 29.1664 44.5002 28.9759 44.2146C28.7854 43.9289 28.6844 43.5936 28.6856 43.251V40.74C28.6856 40.4952 28.738 40.2532 28.8392 40.03C28.9404 39.8067 29.0881 39.6074 29.2726 39.445C29.3624 39.362 29.4626 39.2907 29.5707 39.233C29.6129 39.209 29.6542 39.184 29.6985 39.163C29.772 39.1305 29.8477 39.1035 29.9251 39.082C29.9654 39.067 30.0056 39.055 30.0469 39.044C30.2792 38.99 30.5204 38.9855 30.7545 39.0309C30.9886 39.0762 31.2104 39.1703 31.4053 39.307H31.4073ZM47.4315 45.923V45.92C45.9851 46.8883 44.6571 48.0206 43.4743 49.294C42.9507 49.956 42.4875 50.663 42.0888 51.406C41.3622 52.7644 40.4753 54.0321 39.4466 55.182C38.6202 56.0476 37.6285 56.741 36.5293 57.2217C35.4301 57.7025 34.2454 57.9609 33.0446 57.982C30.79 58.0377 28.592 57.2775 26.86 55.843C26.0015 55.0698 25.3243 54.119 24.8761 53.0576C24.4279 51.9962 24.2197 50.85 24.2662 49.7V49.241C24.2662 48.946 24.2601 48.524 24.2571 48.013L24.2299 44.196C24.2098 41.356 24.1906 38.353 24.1906 37.678C24.1733 37.2613 24.3188 36.8541 24.5967 36.5414C24.8746 36.2287 25.2634 36.0347 25.6819 36C25.8876 35.9925 26.0927 36.026 26.2852 36.0985C26.4777 36.171 26.6536 36.281 26.8026 36.422C26.9588 36.5895 27.0794 36.7865 27.1572 37.0012C27.2351 37.216 27.2686 37.4441 27.2557 37.672V38.756C26.8769 39.3495 26.6751 40.0373 26.6737 40.74V43.26C26.6755 43.8084 26.7993 44.3497 27.0364 44.845C27.2735 45.3403 27.618 45.7774 28.0452 46.125C28.0392 46.1554 28.0351 46.1861 28.0331 46.217C28.0522 46.4814 28.1761 46.7274 28.3778 46.901C28.5794 47.0747 28.8423 47.1617 29.1085 47.143C30.7551 47.0138 32.4076 46.9748 34.0585 47.026C34.708 47.053 35.3353 47.104 35.9264 47.178C35.8609 47.207 35.8005 47.231 35.7341 47.262C33.3657 48.3065 31.3075 49.938 29.7569 52C29.6798 52.1067 29.6245 52.2274 29.5944 52.3553C29.5642 52.4832 29.5597 52.6158 29.5811 52.7454C29.6243 53.0072 29.7705 53.2412 29.9875 53.396C30.2045 53.5508 30.4745 53.6136 30.7381 53.5706C31.0017 53.5277 31.2374 53.3825 31.3932 53.167C32.7397 51.386 34.5238 49.9778 36.5748 49.077C37.2618 48.7608 37.9704 48.4935 38.6954 48.277C38.9613 48.198 39.1727 48.144 39.3147 48.11L39.4718 48.074L39.508 48.066H39.5141C39.7172 48.0268 39.9033 47.9264 40.0469 47.7784C40.1906 47.6305 40.2848 47.4421 40.3169 47.2391C40.3489 47.036 40.3171 46.8281 40.2259 46.6436C40.1347 46.4591 39.9885 46.307 39.8071 46.208C39.175 45.8792 38.5019 45.6348 37.8053 45.481C38.3036 44.6399 38.5506 43.6753 38.5172 42.7V39.671C38.5548 38.7509 38.3486 37.8371 37.9191 37.021V33.844C37.9091 33.3775 38.0809 32.9252 38.3988 32.5815C38.7167 32.2379 39.1559 32.0296 39.6248 32C39.8613 32.001 40.0949 32.0505 40.3111 32.1456C40.5273 32.2407 40.7213 32.3792 40.8809 32.5525C41.0405 32.7257 41.1622 32.9299 41.2384 33.1522C41.3146 33.3745 41.3436 33.61 41.3235 33.844V43.344C41.3054 43.727 41.4303 44.102 41.6739 44.399C41.8246 44.5651 42.0195 44.6856 42.2362 44.7464C42.4528 44.8073 42.6824 44.8061 42.8984 44.743C43.0927 44.686 43.2739 44.595 43.4351 44.474C43.4894 44.435 43.5357 44.398 43.566 44.374L43.6062 44.337L43.6173 44.328C44.3202 43.7458 45.0898 43.2481 45.9101 42.845C46.2912 42.6606 46.7271 42.6211 47.1355 42.734C47.4869 42.809 47.8041 42.993 48.0417 43.26C48.3217 43.648 48.4405 44.128 48.375 44.601C48.3601 44.7992 48.3057 44.9925 48.215 45.1697C48.1242 45.3468 47.9989 45.5043 47.8464 45.633L47.4315 45.923Z"/>
</mask>
<path d="M49.6468 42.056C49.1341 41.4218 48.4223 40.9764 47.6249 40.791C46.7387 40.558 45.7973 40.6554 44.9787 41.065C44.4131 41.3563 43.8641 41.6784 43.3344 42.03V33.844C43.3541 33.3474 43.2729 32.8519 43.0955 32.3872C42.9181 31.9225 42.6483 31.4981 42.302 31.1393C41.9557 30.7804 41.5402 30.4946 41.0802 30.2989C40.6202 30.1031 40.1253 30.0015 39.6248 30C38.622 30.0293 37.6708 30.4486 36.9763 31.1676C36.2817 31.8865 35.8992 32.8477 35.9113 33.844V35.493C35.5997 35.4177 35.2804 35.3782 34.9597 35.375C34.7161 35.375 34.4734 35.395 34.2337 35.436L34.1542 35.448C33.9407 35.488 33.7313 35.548 33.5299 35.625C33.4906 35.64 33.4544 35.658 33.4161 35.675C33.2445 35.7472 33.0803 35.8356 32.9257 35.939C32.8855 35.965 32.8482 35.996 32.8099 36.024C32.6619 36.132 32.525 36.254 32.4011 36.389C32.388 36.403 32.3719 36.412 32.3588 36.427C32.3276 36.462 32.3085 36.503 32.2793 36.539C32.0985 36.7668 31.9476 37.0164 31.8302 37.282C31.127 36.9872 30.3472 36.9234 29.6049 37.1C29.5203 37.119 29.4418 37.151 29.3602 37.176L29.2283 37.216C29.1603 36.3899 28.8067 35.6126 28.2274 35.016C27.8919 34.6878 27.4941 34.4291 27.0572 34.2547C26.6202 34.0803 26.1528 33.9937 25.6819 34C24.7293 34.0334 23.8279 34.4369 23.1718 35.1236C22.5157 35.8104 22.1573 36.7255 22.1738 37.672C22.1738 38.356 22.1929 41.372 22.213 44.204L22.2402 48.022C22.2402 48.532 22.2463 48.955 22.2493 49.249V49.71C22.2048 51.1423 22.4751 52.567 23.0413 53.885C23.6075 55.203 24.456 56.3827 25.5278 57.342C27.6274 59.0986 30.2989 60.0363 33.0435 59.98C34.5155 59.959 35.9685 59.6463 37.3172 59.0602C38.6659 58.4741 39.8832 57.6265 40.8976 56.567C42.0385 55.3024 43.0226 53.9064 43.8288 52.409C44.1651 51.779 44.5527 51.176 44.9877 50.609C46.0688 49.4525 47.2812 48.4243 48.6006 47.545C48.7476 47.445 48.8896 47.339 49.0215 47.245C49.3976 46.9562 49.7106 46.5946 49.9417 46.182C50.1728 45.7695 50.317 45.3146 50.3657 44.845C50.4966 43.8581 50.2391 42.8591 49.6468 42.056ZM33.4071 39.671C33.406 39.441 33.4171 39.212 33.4413 38.984C33.4413 38.933 33.4564 38.892 33.4624 38.844C33.4796 38.722 33.4997 38.607 33.5239 38.504C33.5572 38.364 33.6027 38.2272 33.6598 38.095C33.6759 38.059 33.692 38.019 33.7091 37.987C33.7565 37.895 33.8159 37.81 33.8853 37.733L33.9015 37.718C33.9534 37.6656 34.0116 37.6196 34.0746 37.581C34.1361 37.5406 34.2019 37.5074 34.271 37.482C34.3556 37.45 34.4432 37.426 34.5328 37.41H34.5549C34.6881 37.3887 34.8228 37.3784 34.9577 37.379C35.1553 37.364 35.3538 37.394 35.5379 37.4668C35.722 37.5396 35.8869 37.6532 36.02 37.799C36.4017 38.347 36.5738 39.012 36.5074 39.675V42.7C36.5074 45 35.3414 45 34.9577 45C34.1069 45 33.7242 44.846 33.548 44.319C33.5359 44.283 33.5228 44.248 33.5138 44.209C33.4891 44.1102 33.4706 44.01 33.4584 43.909C33.4584 43.881 33.4503 43.855 33.4473 43.825C33.4313 43.6721 33.4209 43.5187 33.4161 43.365V43.331C33.4101 43.141 33.4081 42.931 33.4081 42.7L33.4071 39.671ZM31.4073 39.307C31.4073 39.428 31.3932 39.543 31.3932 39.671V43.048C31.3839 43.5657 31.4301 44.083 31.5311 44.591C31.289 44.7941 30.9948 44.9264 30.6813 44.9731C30.3679 45.0199 30.0475 44.9794 29.7559 44.856C29.4378 44.7234 29.1664 44.5002 28.9759 44.2146C28.7854 43.9289 28.6844 43.5936 28.6856 43.251V40.74C28.6856 40.4952 28.738 40.2532 28.8392 40.03C28.9404 39.8067 29.0881 39.6074 29.2726 39.445C29.3624 39.362 29.4626 39.2907 29.5707 39.233C29.6129 39.209 29.6542 39.184 29.6985 39.163C29.772 39.1305 29.8477 39.1035 29.9251 39.082C29.9654 39.067 30.0056 39.055 30.0469 39.044C30.2792 38.99 30.5204 38.9855 30.7545 39.0309C30.9886 39.0762 31.2104 39.1703 31.4053 39.307H31.4073ZM47.4315 45.923V45.92C45.9851 46.8883 44.6571 48.0206 43.4743 49.294C42.9507 49.956 42.4875 50.663 42.0888 51.406C41.3622 52.7644 40.4753 54.0321 39.4466 55.182C38.6202 56.0476 37.6285 56.741 36.5293 57.2217C35.4301 57.7025 34.2454 57.9609 33.0446 57.982C30.79 58.0377 28.592 57.2775 26.86 55.843C26.0015 55.0698 25.3243 54.119 24.8761 53.0576C24.4279 51.9962 24.2197 50.85 24.2662 49.7V49.241C24.2662 48.946 24.2601 48.524 24.2571 48.013L24.2299 44.196C24.2098 41.356 24.1906 38.353 24.1906 37.678C24.1733 37.2613 24.3188 36.8541 24.5967 36.5414C24.8746 36.2287 25.2634 36.0347 25.6819 36C25.8876 35.9925 26.0927 36.026 26.2852 36.0985C26.4777 36.171 26.6536 36.281 26.8026 36.422C26.9588 36.5895 27.0794 36.7865 27.1572 37.0012C27.2351 37.216 27.2686 37.4441 27.2557 37.672V38.756C26.8769 39.3495 26.6751 40.0373 26.6737 40.74V43.26C26.6755 43.8084 26.7993 44.3497 27.0364 44.845C27.2735 45.3403 27.618 45.7774 28.0452 46.125C28.0392 46.1554 28.0351 46.1861 28.0331 46.217C28.0522 46.4814 28.1761 46.7274 28.3778 46.901C28.5794 47.0747 28.8423 47.1617 29.1085 47.143C30.7551 47.0138 32.4076 46.9748 34.0585 47.026C34.708 47.053 35.3353 47.104 35.9264 47.178C35.8609 47.207 35.8005 47.231 35.7341 47.262C33.3657 48.3065 31.3075 49.938 29.7569 52C29.6798 52.1067 29.6245 52.2274 29.5944 52.3553C29.5642 52.4832 29.5597 52.6158 29.5811 52.7454C29.6243 53.0072 29.7705 53.2412 29.9875 53.396C30.2045 53.5508 30.4745 53.6136 30.7381 53.5706C31.0017 53.5277 31.2374 53.3825 31.3932 53.167C32.7397 51.386 34.5238 49.9778 36.5748 49.077C37.2618 48.7608 37.9704 48.4935 38.6954 48.277C38.9613 48.198 39.1727 48.144 39.3147 48.11L39.4718 48.074L39.508 48.066H39.5141C39.7172 48.0268 39.9033 47.9264 40.0469 47.7784C40.1906 47.6305 40.2848 47.4421 40.3169 47.2391C40.3489 47.036 40.3171 46.8281 40.2259 46.6436C40.1347 46.4591 39.9885 46.307 39.8071 46.208C39.175 45.8792 38.5019 45.6348 37.8053 45.481C38.3036 44.6399 38.5506 43.6753 38.5172 42.7V39.671C38.5548 38.7509 38.3486 37.8371 37.9191 37.021V33.844C37.9091 33.3775 38.0809 32.9252 38.3988 32.5815C38.7167 32.2379 39.1559 32.0296 39.6248 32C39.8613 32.001 40.0949 32.0505 40.3111 32.1456C40.5273 32.2407 40.7213 32.3792 40.8809 32.5525C41.0405 32.7257 41.1622 32.9299 41.2384 33.1522C41.3146 33.3745 41.3436 33.61 41.3235 33.844V43.344C41.3054 43.727 41.4303 44.102 41.6739 44.399C41.8246 44.5651 42.0195 44.6856 42.2362 44.7464C42.4528 44.8073 42.6824 44.8061 42.8984 44.743C43.0927 44.686 43.2739 44.595 43.4351 44.474C43.4894 44.435 43.5357 44.398 43.566 44.374L43.6062 44.337L43.6173 44.328C44.3202 43.7458 45.0898 43.2481 45.9101 42.845C46.2912 42.6606 46.7271 42.6211 47.1355 42.734C47.4869 42.809 47.8041 42.993 48.0417 43.26C48.3217 43.648 48.4405 44.128 48.375 44.601C48.3601 44.7992 48.3057 44.9925 48.215 45.1697C48.1242 45.3468 47.9989 45.5043 47.8464 45.633L47.4315 45.923Z" fill="#BBA9EF" stroke="black" stroke-width="2" mask="url(#path-3-inside-1_61_373)"/>
<path d="M346.673 39.8L343.719 38.45L340.027 42.5M352.58 52.602C351.748 53.6555 350.654 54.513 349.388 55.1038C348.122 55.6946 346.721 56.0018 345.299 56C340.347 56 336.335 52.3482 336.335 47.8433C336.335 46.662 336.577 45.5388 337.073 44.525M348.371 37.1L347.257 39.5921C346.126 42.1287 345.561 43.3964 346.204 44.2982C346.848 45.2 348.319 45.2 351.261 45.2C352.286 45.2 353.276 44.957 353.846 45.8696L358.487 53.3M350.365 34.4C349.581 34.4 348.83 34.1155 348.276 33.6092C347.722 33.1028 347.411 32.4161 347.411 31.7C347.411 30.9839 347.722 30.2972 348.276 29.7908C348.83 29.2845 349.581 29 350.365 29C351.148 29 351.899 29.2845 352.453 29.7908C353.007 30.2972 353.318 30.9839 353.318 31.7C353.318 32.4161 353.007 33.1028 352.453 33.6092C351.899 34.1155 351.148 34.4 350.365 34.4Z" stroke="black" stroke-width="2" stroke-linecap="round" stroke-linejoin="round"/>
</g>
<defs>
<linearGradient id="paint0_linear_61_373" x1="-3" y1="42" x2="433" y2="42" gradientUnits="userSpaceOnUse">
<stop stop-color="#E0D9F7"/>
<stop offset="1" stop-color="#E0D9F7"/>
</linearGradient>
<linearGradient id="paint1_linear_61_373" x1="201.91" y1="29" x2="201.91" y2="56" gradientUnits="userSpaceOnUse">
<stop stop-color="#E0D9F7"/>
<stop offset="1" stop-color="#BBA9EF"/>
</linearGradient>
<clipPath id="clip0_61_373">
<rect width="436" height="84" fill="white" transform="translate(-3)"/>
</clipPath>
</defs>
</svg>
