<svg width="430" height="84" viewBox="0 0 430 84" fill="none" xmlns="http://www.w3.org/2000/svg">
<g clip-path="url(#clip0_71_183)">
<rect x="-2" width="434" height="84" fill="url(#paint0_linear_71_183)"/>
<path d="M188.439 42.5V34.4H194.528V33.05C194.528 30.8132 196.345 29 198.587 29C200.829 29 202.647 30.8132 202.647 33.05V34.4H208.736V42.5H211.442C213.684 42.5 215.501 44.3133 215.501 46.55C215.501 48.7867 213.684 50.6 211.442 50.6H208.736V56H188.439V50.6H191.145C193.387 50.6 195.204 48.7867 195.204 46.55C195.204 44.3133 193.387 42.5 191.145 42.5H188.439Z" fill="url(#paint1_linear_71_183)" stroke="black" stroke-width="2" stroke-linejoin="round"/>
<mask id="path-3-inside-1_71_183" fill="white">
<path d="M50.4053 42.056C49.8949 41.4218 49.1864 40.9764 48.3927 40.791C47.5106 40.558 46.5735 40.6554 45.7586 41.065C45.1956 41.3563 44.6491 41.6784 44.1218 42.03V33.844C44.1415 33.3474 44.0606 32.8519 43.8841 32.3872C43.7075 31.9225 43.4389 31.4981 43.0942 31.1393C42.7495 30.7804 42.3359 30.4946 41.878 30.2989C41.4202 30.1031 40.9274 30.0015 40.4293 30C39.4311 30.0293 38.4843 30.4486 37.7929 31.1676C37.1015 31.8865 36.7208 32.8477 36.7328 33.844V35.493C36.4226 35.4177 36.1048 35.3782 35.7856 35.375C35.543 35.375 35.3015 35.395 35.0629 35.436L34.9838 35.448C34.7713 35.488 34.5628 35.548 34.3623 35.625C34.3232 35.64 34.2872 35.658 34.2491 35.675C34.0783 35.7472 33.9148 35.8356 33.7609 35.939C33.7208 35.965 33.6838 35.996 33.6457 36.024C33.4983 36.132 33.362 36.254 33.2387 36.389C33.2257 36.403 33.2097 36.412 33.1966 36.427C33.1656 36.462 33.1465 36.503 33.1175 36.539C32.9375 36.7668 32.7873 37.0164 32.6704 37.282C31.9704 36.9872 31.1942 36.9234 30.4553 37.1C30.3711 37.119 30.2929 37.151 30.2118 37.176L30.0805 37.216C30.0128 36.3899 29.6608 35.6126 29.0842 35.016C28.7502 34.6878 28.3542 34.4291 27.9193 34.2547C27.4843 34.0803 27.019 33.9937 26.5503 34C25.6021 34.0334 24.7049 34.4369 24.0518 35.1236C23.3987 35.8104 23.0419 36.7255 23.0583 37.672C23.0583 38.356 23.0773 41.372 23.0974 44.204L23.1244 48.022C23.1244 48.532 23.1304 48.955 23.1335 49.249V49.71C23.0892 51.1423 23.3582 52.567 23.9218 53.885C24.4854 55.203 25.3301 56.3827 26.397 57.342C28.4869 59.0986 31.1461 60.0363 33.8782 59.98C35.3435 59.959 36.7897 59.6463 38.1322 59.0602C39.4748 58.4741 40.6864 57.6265 41.6962 56.567C42.8319 55.3024 43.8115 53.9064 44.6139 52.409C44.9487 51.779 45.3346 51.176 45.7676 50.609C46.8437 49.4525 48.0505 48.4243 49.3639 47.545C49.5102 47.445 49.6516 47.339 49.7829 47.245C50.1572 46.9562 50.4688 46.5946 50.6988 46.182C50.9289 45.7695 51.0725 45.3146 51.1209 44.845C51.2512 43.8581 50.9948 42.8591 50.4053 42.056ZM34.24 39.671C34.239 39.441 34.2501 39.212 34.2741 38.984C34.2741 38.933 34.2892 38.892 34.2952 38.844C34.3122 38.722 34.3323 38.607 34.3563 38.504C34.3895 38.364 34.4348 38.2272 34.4916 38.095C34.5077 38.059 34.5237 38.019 34.5407 37.987C34.5878 37.895 34.647 37.81 34.7161 37.733L34.7322 37.718C34.7839 37.6656 34.8418 37.6196 34.9046 37.581C34.9657 37.5406 35.0313 37.5074 35.1 37.482C35.1842 37.45 35.2714 37.426 35.3606 37.41H35.3827C35.5152 37.3887 35.6493 37.3784 35.7836 37.379C35.9803 37.364 36.1778 37.394 36.3611 37.4668C36.5444 37.5396 36.7085 37.6532 36.841 37.799C37.2209 38.347 37.3923 39.012 37.3262 39.675V42.7C37.3262 45 36.1655 45 35.7836 45C34.9366 45 34.5558 44.846 34.3804 44.319C34.3683 44.283 34.3553 44.248 34.3463 44.209C34.3217 44.1102 34.3033 44.01 34.2912 43.909C34.2912 43.881 34.2831 43.855 34.2801 43.825C34.2642 43.6721 34.2538 43.5187 34.2491 43.365V43.331C34.243 43.141 34.241 42.931 34.241 42.7L34.24 39.671ZM32.2495 39.307C32.2495 39.428 32.2354 39.543 32.2354 39.671V43.048C32.2261 43.5657 32.2722 44.083 32.3727 44.591C32.1317 44.7941 31.8388 44.9264 31.5268 44.9731C31.2148 45.0199 30.8959 44.9794 30.6057 44.856C30.289 44.7234 30.0188 44.5002 29.8292 44.2146C29.6396 43.9289 29.539 43.5936 29.5402 43.251V40.74C29.5403 40.4952 29.5924 40.2532 29.6931 40.03C29.7939 39.8067 29.9409 39.6074 30.1246 39.445C30.214 39.362 30.3137 39.2907 30.4212 39.233C30.4633 39.209 30.5044 39.184 30.5485 39.163C30.6216 39.1305 30.697 39.1035 30.7741 39.082C30.8141 39.067 30.8542 39.055 30.8953 39.044C31.1265 38.99 31.3666 38.9855 31.5997 39.0309C31.8327 39.0762 32.0535 39.1703 32.2475 39.307H32.2495ZM48.2002 45.923V45.92C46.7604 46.8883 45.4384 48.0206 44.2611 49.294C43.7399 49.956 43.2789 50.663 42.882 51.406C42.1587 52.7644 41.2758 54.0321 40.2519 55.182C39.4293 56.0476 38.4421 56.741 37.3479 57.2217C36.2538 57.7025 35.0746 57.9609 33.8792 57.982C31.635 58.0377 29.447 57.2775 27.723 55.843C26.8685 55.0698 26.1943 54.119 25.7482 53.0576C25.3021 51.9962 25.0948 50.85 25.1411 49.7V49.241C25.1411 48.946 25.1351 48.524 25.1321 48.013L25.105 44.196C25.0849 41.356 25.0659 38.353 25.0659 37.678C25.0487 37.2613 25.1935 36.8541 25.4701 36.5414C25.7467 36.2287 26.1338 36.0347 26.5503 36C26.7551 35.9925 26.9593 36.026 27.1509 36.0985C27.3425 36.171 27.5176 36.281 27.6659 36.422C27.8213 36.5895 27.9414 36.7865 28.0189 37.0012C28.0964 37.216 28.1297 37.4441 28.1169 37.672V38.756C27.7398 39.3495 27.539 40.0373 27.5376 40.74V43.26C27.5393 43.8084 27.6626 44.3497 27.8986 44.845C28.1346 45.3403 28.4775 45.7774 28.9027 46.125C28.8968 46.1554 28.8928 46.1861 28.8907 46.217C28.9097 46.4814 29.0331 46.7274 29.2339 46.901C29.4346 47.0747 29.6962 47.1617 29.9612 47.143C31.6002 47.0138 33.2452 46.9748 34.8885 47.026C35.535 47.053 36.1595 47.104 36.7478 47.178C36.6827 47.207 36.6225 47.231 36.5564 47.262C34.1989 48.3065 32.1501 49.938 30.6067 52C30.5299 52.1067 30.4749 52.2274 30.4448 52.3553C30.4148 52.4832 30.4103 52.6158 30.4316 52.7454C30.4747 53.0072 30.6202 53.2412 30.8362 53.396C31.0522 53.5508 31.3209 53.6136 31.5833 53.5706C31.8458 53.5277 32.0803 53.3825 32.2354 53.167C33.5758 51.386 35.3517 49.9778 37.3933 49.077C38.0771 48.7608 38.7825 48.4935 39.5042 48.277C39.7688 48.198 39.9793 48.144 40.1206 48.11L40.277 48.074L40.313 48.066H40.319C40.5213 48.0268 40.7065 47.9264 40.8495 47.7784C40.9925 47.6305 41.0863 47.4421 41.1182 47.2391C41.15 47.036 41.1184 46.8281 41.0276 46.6436C40.9368 46.4591 40.7913 46.307 40.6107 46.208C39.9815 45.8792 39.3115 45.6348 38.6181 45.481C39.1142 44.6399 39.36 43.6753 39.3268 42.7V39.671C39.3642 38.7509 39.1589 37.8371 38.7314 37.021V33.844C38.7214 33.3775 38.8925 32.9252 39.2089 32.5815C39.5253 32.2379 39.9625 32.0296 40.4293 32C40.6646 32.001 40.8972 32.0505 41.1124 32.1456C41.3276 32.2407 41.5207 32.3792 41.6796 32.5525C41.8384 32.7257 41.9596 32.9299 42.0354 33.1522C42.1113 33.3745 42.1401 33.61 42.1202 33.844V43.344C42.1022 43.727 42.2264 44.102 42.469 44.399C42.619 44.5651 42.813 44.6856 43.0287 44.7464C43.2443 44.8073 43.4728 44.8061 43.6878 44.743C43.8813 44.686 44.0617 44.595 44.222 44.474C44.2762 44.435 44.3223 44.398 44.3523 44.374L44.3924 44.337L44.4035 44.328C45.1031 43.7458 45.8692 43.2481 46.6857 42.845C47.0651 42.6606 47.499 42.6211 47.9055 42.734C48.2553 42.809 48.5711 42.993 48.8076 43.26C49.0863 43.648 49.2045 44.128 49.1394 44.601C49.1245 44.7992 49.0704 44.9925 48.98 45.1697C48.8897 45.3468 48.765 45.5043 48.6132 45.633L48.2002 45.923Z"/>
</mask>
<path d="M50.4053 42.056C49.8949 41.4218 49.1864 40.9764 48.3927 40.791C47.5106 40.558 46.5735 40.6554 45.7586 41.065C45.1956 41.3563 44.6491 41.6784 44.1218 42.03V33.844C44.1415 33.3474 44.0606 32.8519 43.8841 32.3872C43.7075 31.9225 43.4389 31.4981 43.0942 31.1393C42.7495 30.7804 42.3359 30.4946 41.878 30.2989C41.4202 30.1031 40.9274 30.0015 40.4293 30C39.4311 30.0293 38.4843 30.4486 37.7929 31.1676C37.1015 31.8865 36.7208 32.8477 36.7328 33.844V35.493C36.4226 35.4177 36.1048 35.3782 35.7856 35.375C35.543 35.375 35.3015 35.395 35.0629 35.436L34.9838 35.448C34.7713 35.488 34.5628 35.548 34.3623 35.625C34.3232 35.64 34.2872 35.658 34.2491 35.675C34.0783 35.7472 33.9148 35.8356 33.7609 35.939C33.7208 35.965 33.6838 35.996 33.6457 36.024C33.4983 36.132 33.362 36.254 33.2387 36.389C33.2257 36.403 33.2097 36.412 33.1966 36.427C33.1656 36.462 33.1465 36.503 33.1175 36.539C32.9375 36.7668 32.7873 37.0164 32.6704 37.282C31.9704 36.9872 31.1942 36.9234 30.4553 37.1C30.3711 37.119 30.2929 37.151 30.2118 37.176L30.0805 37.216C30.0128 36.3899 29.6608 35.6126 29.0842 35.016C28.7502 34.6878 28.3542 34.4291 27.9193 34.2547C27.4843 34.0803 27.019 33.9937 26.5503 34C25.6021 34.0334 24.7049 34.4369 24.0518 35.1236C23.3987 35.8104 23.0419 36.7255 23.0583 37.672C23.0583 38.356 23.0773 41.372 23.0974 44.204L23.1244 48.022C23.1244 48.532 23.1304 48.955 23.1335 49.249V49.71C23.0892 51.1423 23.3582 52.567 23.9218 53.885C24.4854 55.203 25.3301 56.3827 26.397 57.342C28.4869 59.0986 31.1461 60.0363 33.8782 59.98C35.3435 59.959 36.7897 59.6463 38.1322 59.0602C39.4748 58.4741 40.6864 57.6265 41.6962 56.567C42.8319 55.3024 43.8115 53.9064 44.6139 52.409C44.9487 51.779 45.3346 51.176 45.7676 50.609C46.8437 49.4525 48.0505 48.4243 49.3639 47.545C49.5102 47.445 49.6516 47.339 49.7829 47.245C50.1572 46.9562 50.4688 46.5946 50.6988 46.182C50.9289 45.7695 51.0725 45.3146 51.1209 44.845C51.2512 43.8581 50.9948 42.8591 50.4053 42.056ZM34.24 39.671C34.239 39.441 34.2501 39.212 34.2741 38.984C34.2741 38.933 34.2892 38.892 34.2952 38.844C34.3122 38.722 34.3323 38.607 34.3563 38.504C34.3895 38.364 34.4348 38.2272 34.4916 38.095C34.5077 38.059 34.5237 38.019 34.5407 37.987C34.5878 37.895 34.647 37.81 34.7161 37.733L34.7322 37.718C34.7839 37.6656 34.8418 37.6196 34.9046 37.581C34.9657 37.5406 35.0313 37.5074 35.1 37.482C35.1842 37.45 35.2714 37.426 35.3606 37.41H35.3827C35.5152 37.3887 35.6493 37.3784 35.7836 37.379C35.9803 37.364 36.1778 37.394 36.3611 37.4668C36.5444 37.5396 36.7085 37.6532 36.841 37.799C37.2209 38.347 37.3923 39.012 37.3262 39.675V42.7C37.3262 45 36.1655 45 35.7836 45C34.9366 45 34.5558 44.846 34.3804 44.319C34.3683 44.283 34.3553 44.248 34.3463 44.209C34.3217 44.1102 34.3033 44.01 34.2912 43.909C34.2912 43.881 34.2831 43.855 34.2801 43.825C34.2642 43.6721 34.2538 43.5187 34.2491 43.365V43.331C34.243 43.141 34.241 42.931 34.241 42.7L34.24 39.671ZM32.2495 39.307C32.2495 39.428 32.2354 39.543 32.2354 39.671V43.048C32.2261 43.5657 32.2722 44.083 32.3727 44.591C32.1317 44.7941 31.8388 44.9264 31.5268 44.9731C31.2148 45.0199 30.8959 44.9794 30.6057 44.856C30.289 44.7234 30.0188 44.5002 29.8292 44.2146C29.6396 43.9289 29.539 43.5936 29.5402 43.251V40.74C29.5403 40.4952 29.5924 40.2532 29.6931 40.03C29.7939 39.8067 29.9409 39.6074 30.1246 39.445C30.214 39.362 30.3137 39.2907 30.4212 39.233C30.4633 39.209 30.5044 39.184 30.5485 39.163C30.6216 39.1305 30.697 39.1035 30.7741 39.082C30.8141 39.067 30.8542 39.055 30.8953 39.044C31.1265 38.99 31.3666 38.9855 31.5997 39.0309C31.8327 39.0762 32.0535 39.1703 32.2475 39.307H32.2495ZM48.2002 45.923V45.92C46.7604 46.8883 45.4384 48.0206 44.2611 49.294C43.7399 49.956 43.2789 50.663 42.882 51.406C42.1587 52.7644 41.2758 54.0321 40.2519 55.182C39.4293 56.0476 38.4421 56.741 37.3479 57.2217C36.2538 57.7025 35.0746 57.9609 33.8792 57.982C31.635 58.0377 29.447 57.2775 27.723 55.843C26.8685 55.0698 26.1943 54.119 25.7482 53.0576C25.3021 51.9962 25.0948 50.85 25.1411 49.7V49.241C25.1411 48.946 25.1351 48.524 25.1321 48.013L25.105 44.196C25.0849 41.356 25.0659 38.353 25.0659 37.678C25.0487 37.2613 25.1935 36.8541 25.4701 36.5414C25.7467 36.2287 26.1338 36.0347 26.5503 36C26.7551 35.9925 26.9593 36.026 27.1509 36.0985C27.3425 36.171 27.5176 36.281 27.6659 36.422C27.8213 36.5895 27.9414 36.7865 28.0189 37.0012C28.0964 37.216 28.1297 37.4441 28.1169 37.672V38.756C27.7398 39.3495 27.539 40.0373 27.5376 40.74V43.26C27.5393 43.8084 27.6626 44.3497 27.8986 44.845C28.1346 45.3403 28.4775 45.7774 28.9027 46.125C28.8968 46.1554 28.8928 46.1861 28.8907 46.217C28.9097 46.4814 29.0331 46.7274 29.2339 46.901C29.4346 47.0747 29.6962 47.1617 29.9612 47.143C31.6002 47.0138 33.2452 46.9748 34.8885 47.026C35.535 47.053 36.1595 47.104 36.7478 47.178C36.6827 47.207 36.6225 47.231 36.5564 47.262C34.1989 48.3065 32.1501 49.938 30.6067 52C30.5299 52.1067 30.4749 52.2274 30.4448 52.3553C30.4148 52.4832 30.4103 52.6158 30.4316 52.7454C30.4747 53.0072 30.6202 53.2412 30.8362 53.396C31.0522 53.5508 31.3209 53.6136 31.5833 53.5706C31.8458 53.5277 32.0803 53.3825 32.2354 53.167C33.5758 51.386 35.3517 49.9778 37.3933 49.077C38.0771 48.7608 38.7825 48.4935 39.5042 48.277C39.7688 48.198 39.9793 48.144 40.1206 48.11L40.277 48.074L40.313 48.066H40.319C40.5213 48.0268 40.7065 47.9264 40.8495 47.7784C40.9925 47.6305 41.0863 47.4421 41.1182 47.2391C41.15 47.036 41.1184 46.8281 41.0276 46.6436C40.9368 46.4591 40.7913 46.307 40.6107 46.208C39.9815 45.8792 39.3115 45.6348 38.6181 45.481C39.1142 44.6399 39.36 43.6753 39.3268 42.7V39.671C39.3642 38.7509 39.1589 37.8371 38.7314 37.021V33.844C38.7214 33.3775 38.8925 32.9252 39.2089 32.5815C39.5253 32.2379 39.9625 32.0296 40.4293 32C40.6646 32.001 40.8972 32.0505 41.1124 32.1456C41.3276 32.2407 41.5207 32.3792 41.6796 32.5525C41.8384 32.7257 41.9596 32.9299 42.0354 33.1522C42.1113 33.3745 42.1401 33.61 42.1202 33.844V43.344C42.1022 43.727 42.2264 44.102 42.469 44.399C42.619 44.5651 42.813 44.6856 43.0287 44.7464C43.2443 44.8073 43.4728 44.8061 43.6878 44.743C43.8813 44.686 44.0617 44.595 44.222 44.474C44.2762 44.435 44.3223 44.398 44.3523 44.374L44.3924 44.337L44.4035 44.328C45.1031 43.7458 45.8692 43.2481 46.6857 42.845C47.0651 42.6606 47.499 42.6211 47.9055 42.734C48.2553 42.809 48.5711 42.993 48.8076 43.26C49.0863 43.648 49.2045 44.128 49.1394 44.601C49.1245 44.7992 49.0704 44.9925 48.98 45.1697C48.8897 45.3468 48.765 45.5043 48.6132 45.633L48.2002 45.923Z" fill="#BBA9EF" stroke="black" stroke-width="2" mask="url(#path-3-inside-1_71_183)"/>
<path d="M346.069 39.8L343.129 38.45L339.453 42.5M351.949 52.602C351.121 53.6555 350.032 54.513 348.772 55.1038C347.511 55.6946 346.116 56.0018 344.702 56C339.772 56 335.778 52.3482 335.778 47.8433C335.778 46.662 336.019 45.5388 336.513 44.525M347.759 37.1L346.651 39.5921C345.525 42.1287 344.962 43.3964 345.603 44.2982C346.244 45.2 347.708 45.2 350.636 45.2C351.656 45.2 352.641 44.957 353.209 45.8696L357.829 53.3M349.744 34.4C348.964 34.4 348.216 34.1155 347.665 33.6092C347.113 33.1028 346.804 32.4161 346.804 31.7C346.804 30.9839 347.113 30.2972 347.665 29.7908C348.216 29.2845 348.964 29 349.744 29C350.524 29 351.271 29.2845 351.823 29.7908C352.374 30.2972 352.684 30.9839 352.684 31.7C352.684 32.4161 352.374 33.1028 351.823 33.6092C351.271 34.1155 350.524 34.4 349.744 34.4Z" stroke="black" stroke-width="2" stroke-linecap="round" stroke-linejoin="round"/>
</g>
<defs>
<linearGradient id="paint0_linear_71_183" x1="-2" y1="42" x2="432" y2="42" gradientUnits="userSpaceOnUse">
<stop stop-color="#E0D9F7"/>
<stop offset="1" stop-color="#E0D9F7"/>
</linearGradient>
<linearGradient id="paint1_linear_71_183" x1="201.97" y1="29" x2="201.97" y2="56" gradientUnits="userSpaceOnUse">
<stop stop-color="#E0D9F7"/>
<stop offset="1" stop-color="#BBA9EF"/>
</linearGradient>
<clipPath id="clip0_71_183">
<rect width="434" height="84" fill="white" transform="translate(-2)"/>
</clipPath>
</defs>
</svg>
