<svg width="29" height="30" viewBox="0 0 29 30" fill="none" xmlns="http://www.w3.org/2000/svg">
<mask id="path-1-inside-1_297_519" fill="white">
<path d="M27.2845 12.056C26.7754 11.4218 26.0684 10.9764 25.2765 10.791C24.3965 10.558 23.4616 10.6554 22.6485 11.065C22.0868 11.3563 21.5416 11.6784 21.0155 12.03V3.844C21.0352 3.3474 20.9545 2.85194 20.7783 2.38723C20.6022 1.92251 20.3342 1.49807 19.9903 1.13926C19.6464 0.780448 19.2337 0.494634 18.7769 0.298891C18.3201 0.103149 17.8285 0.00149393 17.3315 0C16.3356 0.029295 15.391 0.448586 14.7012 1.16757C14.0114 1.88655 13.6316 2.8477 13.6435 3.844V5.493C13.3341 5.41774 13.017 5.37815 12.6985 5.375C12.4565 5.375 12.2155 5.395 11.9775 5.436L11.8985 5.448C11.6865 5.488 11.4785 5.548 11.2785 5.625C11.2395 5.64 11.2035 5.658 11.1655 5.675C10.9951 5.7472 10.832 5.83561 10.6785 5.939C10.6385 5.965 10.6015 5.996 10.5635 6.024C10.4165 6.132 10.2805 6.254 10.1575 6.389C10.1445 6.403 10.1285 6.412 10.1155 6.427C10.0845 6.462 10.0655 6.503 10.0365 6.539C9.85697 6.76675 9.7071 7.01642 9.59054 7.282C8.89213 6.98719 8.11776 6.92342 7.38054 7.1C7.29654 7.119 7.21854 7.151 7.13754 7.176L7.00654 7.216C6.93902 6.38993 6.58783 5.61265 6.01254 5.016C5.67932 4.68784 5.28429 4.42907 4.85035 4.25467C4.41641 4.08027 3.95217 3.99371 3.48454 4C2.53846 4.03341 1.64332 4.4369 0.991736 5.12364C0.340154 5.81038 -0.0157778 6.72548 0.000537101 7.672C0.000537101 8.356 0.019537 11.372 0.039537 14.204L0.0665372 18.022C0.0665372 18.532 0.072537 18.955 0.075537 19.249V19.71C0.0313953 21.1423 0.299809 22.567 0.862106 23.885C1.4244 25.203 2.26709 26.3827 3.33154 27.342C5.41661 29.0986 8.06973 30.0363 10.7955 29.98C12.2574 29.959 13.7004 29.6463 15.0398 29.0602C16.3792 28.4741 17.5881 27.6265 18.5955 26.567C19.7286 25.3024 20.7059 23.9064 21.5065 22.409C21.8405 21.779 22.2255 21.176 22.6575 20.609C23.7311 19.4525 24.9352 18.4243 26.2455 17.545C26.3915 17.445 26.5325 17.339 26.6635 17.245C27.037 16.9562 27.3479 16.5946 27.5774 16.182C27.8069 15.7695 27.9502 15.3146 27.9985 14.845C28.1285 13.8581 27.8727 12.8591 27.2845 12.056ZM11.1565 9.671C11.1555 9.441 11.1665 9.212 11.1905 8.984C11.1905 8.933 11.2055 8.892 11.2115 8.844C11.2285 8.722 11.2485 8.607 11.2725 8.504C11.3056 8.36403 11.3508 8.22718 11.4075 8.095C11.4235 8.059 11.4395 8.019 11.4565 7.987C11.5035 7.895 11.5625 7.81 11.6315 7.733L11.6475 7.718C11.6992 7.66559 11.7569 7.61959 11.8195 7.581C11.8805 7.54063 11.946 7.50742 12.0145 7.482C12.0985 7.45 12.1855 7.426 12.2745 7.41H12.2965C12.4288 7.38875 12.5626 7.37838 12.6965 7.379C12.8928 7.36396 13.0898 7.39399 13.2727 7.46678C13.4555 7.53957 13.6193 7.65321 13.7515 7.799C14.1305 8.347 14.3015 9.012 14.2355 9.675V12.7C14.2355 15 13.0775 15 12.6965 15C11.8515 15 11.4715 14.846 11.2965 14.319C11.2845 14.283 11.2715 14.248 11.2625 14.209C11.238 14.1102 11.2197 14.01 11.2075 13.909C11.2075 13.881 11.1995 13.855 11.1965 13.825C11.1806 13.6721 11.1703 13.5187 11.1655 13.365V13.331C11.1595 13.141 11.1575 12.931 11.1575 12.7L11.1565 9.671ZM9.17054 9.307C9.17054 9.428 9.15654 9.543 9.15654 9.671V13.048C9.14727 13.5657 9.1932 14.083 9.29354 14.591C9.05302 14.7941 8.76084 14.9264 8.44956 14.9731C8.13828 15.0199 7.82012 14.9794 7.53054 14.856C7.21461 14.7234 6.94504 14.5002 6.75585 14.2146C6.56666 13.9289 6.46633 13.5936 6.46754 13.251V10.74C6.46762 10.4952 6.51962 10.2532 6.62012 10.03C6.72061 9.80673 6.86731 9.60736 7.05054 9.445C7.13975 9.36198 7.23922 9.29074 7.34654 9.233C7.38854 9.209 7.42954 9.184 7.47354 9.163C7.54645 9.13053 7.62165 9.10345 7.69854 9.082C7.73854 9.067 7.77854 9.055 7.81954 9.044C8.05021 8.99001 8.28971 8.98553 8.52224 9.03086C8.75476 9.07619 8.97504 9.17031 9.16854 9.307H9.17054ZM25.0845 15.923V15.92C23.648 16.8883 22.3291 18.0206 21.1545 19.294C20.6345 19.956 20.1745 20.663 19.7785 21.406C19.057 22.7644 18.1761 24.0321 17.1545 25.182C16.3338 26.0476 15.3489 26.741 14.2573 27.2217C13.1656 27.7025 11.9892 27.9609 10.7965 27.982C8.55751 28.0377 6.37458 27.2775 4.65454 25.843C3.80193 25.0698 3.12936 24.119 2.68427 23.0576C2.23918 21.9962 2.03241 20.85 2.07854 19.7V19.241C2.07854 18.946 2.07254 18.524 2.06954 18.013L2.04254 14.196C2.02254 11.356 2.00354 8.353 2.00354 7.678C1.98636 7.26129 2.13085 6.85407 2.40682 6.54138C2.6828 6.22869 3.06893 6.03472 3.48454 6C3.68883 5.99252 3.89255 6.02601 4.0837 6.09849C4.27485 6.17096 4.44956 6.28096 4.59754 6.422C4.75262 6.58947 4.87239 6.78646 4.9497 7.00122C5.02701 7.21598 5.06029 7.44411 5.04754 7.672V8.756C4.67131 9.34945 4.47091 10.0373 4.46954 10.74V13.26C4.47127 13.8084 4.59427 14.3497 4.82974 14.845C5.06521 15.3403 5.40731 15.7774 5.83154 16.125C5.82558 16.1554 5.82157 16.1861 5.81954 16.217C5.83849 16.4814 5.96163 16.7274 6.16189 16.901C6.36214 17.0747 6.62315 17.1617 6.88754 17.143C8.52282 17.0138 10.164 16.9748 11.8035 17.026C12.4485 17.053 13.0715 17.104 13.6585 17.178C13.5935 17.207 13.5335 17.231 13.4675 17.262C11.1155 18.3065 9.07144 19.938 7.53154 22C7.45491 22.1067 7.40005 22.2274 7.37009 22.3553C7.34013 22.4832 7.33565 22.6158 7.35692 22.7454C7.39986 23.0072 7.54505 23.2412 7.76054 23.396C7.97603 23.5508 8.24416 23.6136 8.50596 23.5706C8.76777 23.5277 9.00178 23.3825 9.15654 23.167C10.4938 21.386 12.2656 19.9778 14.3025 19.077C14.9847 18.7608 15.6885 18.4935 16.4085 18.277C16.6725 18.198 16.8825 18.144 17.0235 18.11L17.1795 18.074L17.2155 18.066H17.2215C17.4233 18.0268 17.6081 17.9264 17.7507 17.7784C17.8934 17.6305 17.987 17.4421 18.0188 17.2391C18.0506 17.036 18.0191 16.8281 17.9285 16.6436C17.8379 16.4591 17.6927 16.307 17.5125 16.208C16.8848 15.8792 16.2163 15.6348 15.5245 15.481C16.0194 14.6399 16.2647 13.6753 16.2315 12.7V9.671C16.2689 8.7509 16.064 7.83713 15.6375 7.021V3.844C15.6276 3.37749 15.7983 2.92517 16.1139 2.58154C16.4296 2.23791 16.8659 2.02956 17.3315 2C17.5663 2.00095 17.7984 2.05053 18.0131 2.14562C18.2278 2.24071 18.4204 2.37924 18.5789 2.55249C18.7374 2.72573 18.8583 2.92993 18.934 3.15221C19.0096 3.37449 19.0384 3.61004 19.0185 3.844V13.344C19.0005 13.727 19.1245 14.102 19.3665 14.399C19.5162 14.5651 19.7098 14.6856 19.9249 14.7464C20.1401 14.8073 20.368 14.8061 20.5825 14.743C20.7755 14.686 20.9555 14.595 21.1155 14.474C21.1695 14.435 21.2155 14.398 21.2455 14.374L21.2855 14.337L21.2965 14.328C21.9946 13.7458 22.7589 13.2481 23.5735 12.845C23.952 12.6606 24.3849 12.6211 24.7905 12.734C25.1395 12.809 25.4545 12.993 25.6905 13.26C25.9685 13.648 26.0865 14.128 26.0215 14.601C26.0067 14.7992 25.9527 14.9925 25.8626 15.1697C25.7724 15.3468 25.648 15.5043 25.4965 15.633L25.0845 15.923Z"/>
</mask>
<path d="M27.2845 12.056C26.7754 11.4218 26.0684 10.9764 25.2765 10.791C24.3965 10.558 23.4616 10.6554 22.6485 11.065C22.0868 11.3563 21.5416 11.6784 21.0155 12.03V3.844C21.0352 3.3474 20.9545 2.85194 20.7783 2.38723C20.6022 1.92251 20.3342 1.49807 19.9903 1.13926C19.6464 0.780448 19.2337 0.494634 18.7769 0.298891C18.3201 0.103149 17.8285 0.00149393 17.3315 0C16.3356 0.029295 15.391 0.448586 14.7012 1.16757C14.0114 1.88655 13.6316 2.8477 13.6435 3.844V5.493C13.3341 5.41774 13.017 5.37815 12.6985 5.375C12.4565 5.375 12.2155 5.395 11.9775 5.436L11.8985 5.448C11.6865 5.488 11.4785 5.548 11.2785 5.625C11.2395 5.64 11.2035 5.658 11.1655 5.675C10.9951 5.7472 10.832 5.83561 10.6785 5.939C10.6385 5.965 10.6015 5.996 10.5635 6.024C10.4165 6.132 10.2805 6.254 10.1575 6.389C10.1445 6.403 10.1285 6.412 10.1155 6.427C10.0845 6.462 10.0655 6.503 10.0365 6.539C9.85697 6.76675 9.7071 7.01642 9.59054 7.282C8.89213 6.98719 8.11776 6.92342 7.38054 7.1C7.29654 7.119 7.21854 7.151 7.13754 7.176L7.00654 7.216C6.93902 6.38993 6.58783 5.61265 6.01254 5.016C5.67932 4.68784 5.28429 4.42907 4.85035 4.25467C4.41641 4.08027 3.95217 3.99371 3.48454 4C2.53846 4.03341 1.64332 4.4369 0.991736 5.12364C0.340154 5.81038 -0.0157778 6.72548 0.000537101 7.672C0.000537101 8.356 0.019537 11.372 0.039537 14.204L0.0665372 18.022C0.0665372 18.532 0.072537 18.955 0.075537 19.249V19.71C0.0313953 21.1423 0.299809 22.567 0.862106 23.885C1.4244 25.203 2.26709 26.3827 3.33154 27.342C5.41661 29.0986 8.06973 30.0363 10.7955 29.98C12.2574 29.959 13.7004 29.6463 15.0398 29.0602C16.3792 28.4741 17.5881 27.6265 18.5955 26.567C19.7286 25.3024 20.7059 23.9064 21.5065 22.409C21.8405 21.779 22.2255 21.176 22.6575 20.609C23.7311 19.4525 24.9352 18.4243 26.2455 17.545C26.3915 17.445 26.5325 17.339 26.6635 17.245C27.037 16.9562 27.3479 16.5946 27.5774 16.182C27.8069 15.7695 27.9502 15.3146 27.9985 14.845C28.1285 13.8581 27.8727 12.8591 27.2845 12.056ZM11.1565 9.671C11.1555 9.441 11.1665 9.212 11.1905 8.984C11.1905 8.933 11.2055 8.892 11.2115 8.844C11.2285 8.722 11.2485 8.607 11.2725 8.504C11.3056 8.36403 11.3508 8.22718 11.4075 8.095C11.4235 8.059 11.4395 8.019 11.4565 7.987C11.5035 7.895 11.5625 7.81 11.6315 7.733L11.6475 7.718C11.6992 7.66559 11.7569 7.61959 11.8195 7.581C11.8805 7.54063 11.946 7.50742 12.0145 7.482C12.0985 7.45 12.1855 7.426 12.2745 7.41H12.2965C12.4288 7.38875 12.5626 7.37838 12.6965 7.379C12.8928 7.36396 13.0898 7.39399 13.2727 7.46678C13.4555 7.53957 13.6193 7.65321 13.7515 7.799C14.1305 8.347 14.3015 9.012 14.2355 9.675V12.7C14.2355 15 13.0775 15 12.6965 15C11.8515 15 11.4715 14.846 11.2965 14.319C11.2845 14.283 11.2715 14.248 11.2625 14.209C11.238 14.1102 11.2197 14.01 11.2075 13.909C11.2075 13.881 11.1995 13.855 11.1965 13.825C11.1806 13.6721 11.1703 13.5187 11.1655 13.365V13.331C11.1595 13.141 11.1575 12.931 11.1575 12.7L11.1565 9.671ZM9.17054 9.307C9.17054 9.428 9.15654 9.543 9.15654 9.671V13.048C9.14727 13.5657 9.1932 14.083 9.29354 14.591C9.05302 14.7941 8.76084 14.9264 8.44956 14.9731C8.13828 15.0199 7.82012 14.9794 7.53054 14.856C7.21461 14.7234 6.94504 14.5002 6.75585 14.2146C6.56666 13.9289 6.46633 13.5936 6.46754 13.251V10.74C6.46762 10.4952 6.51962 10.2532 6.62012 10.03C6.72061 9.80673 6.86731 9.60736 7.05054 9.445C7.13975 9.36198 7.23922 9.29074 7.34654 9.233C7.38854 9.209 7.42954 9.184 7.47354 9.163C7.54645 9.13053 7.62165 9.10345 7.69854 9.082C7.73854 9.067 7.77854 9.055 7.81954 9.044C8.05021 8.99001 8.28971 8.98553 8.52224 9.03086C8.75476 9.07619 8.97504 9.17031 9.16854 9.307H9.17054ZM25.0845 15.923V15.92C23.648 16.8883 22.3291 18.0206 21.1545 19.294C20.6345 19.956 20.1745 20.663 19.7785 21.406C19.057 22.7644 18.1761 24.0321 17.1545 25.182C16.3338 26.0476 15.3489 26.741 14.2573 27.2217C13.1656 27.7025 11.9892 27.9609 10.7965 27.982C8.55751 28.0377 6.37458 27.2775 4.65454 25.843C3.80193 25.0698 3.12936 24.119 2.68427 23.0576C2.23918 21.9962 2.03241 20.85 2.07854 19.7V19.241C2.07854 18.946 2.07254 18.524 2.06954 18.013L2.04254 14.196C2.02254 11.356 2.00354 8.353 2.00354 7.678C1.98636 7.26129 2.13085 6.85407 2.40682 6.54138C2.6828 6.22869 3.06893 6.03472 3.48454 6C3.68883 5.99252 3.89255 6.02601 4.0837 6.09849C4.27485 6.17096 4.44956 6.28096 4.59754 6.422C4.75262 6.58947 4.87239 6.78646 4.9497 7.00122C5.02701 7.21598 5.06029 7.44411 5.04754 7.672V8.756C4.67131 9.34945 4.47091 10.0373 4.46954 10.74V13.26C4.47127 13.8084 4.59427 14.3497 4.82974 14.845C5.06521 15.3403 5.40731 15.7774 5.83154 16.125C5.82558 16.1554 5.82157 16.1861 5.81954 16.217C5.83849 16.4814 5.96163 16.7274 6.16189 16.901C6.36214 17.0747 6.62315 17.1617 6.88754 17.143C8.52282 17.0138 10.164 16.9748 11.8035 17.026C12.4485 17.053 13.0715 17.104 13.6585 17.178C13.5935 17.207 13.5335 17.231 13.4675 17.262C11.1155 18.3065 9.07144 19.938 7.53154 22C7.45491 22.1067 7.40005 22.2274 7.37009 22.3553C7.34013 22.4832 7.33565 22.6158 7.35692 22.7454C7.39986 23.0072 7.54505 23.2412 7.76054 23.396C7.97603 23.5508 8.24416 23.6136 8.50596 23.5706C8.76777 23.5277 9.00178 23.3825 9.15654 23.167C10.4938 21.386 12.2656 19.9778 14.3025 19.077C14.9847 18.7608 15.6885 18.4935 16.4085 18.277C16.6725 18.198 16.8825 18.144 17.0235 18.11L17.1795 18.074L17.2155 18.066H17.2215C17.4233 18.0268 17.6081 17.9264 17.7507 17.7784C17.8934 17.6305 17.987 17.4421 18.0188 17.2391C18.0506 17.036 18.0191 16.8281 17.9285 16.6436C17.8379 16.4591 17.6927 16.307 17.5125 16.208C16.8848 15.8792 16.2163 15.6348 15.5245 15.481C16.0194 14.6399 16.2647 13.6753 16.2315 12.7V9.671C16.2689 8.7509 16.064 7.83713 15.6375 7.021V3.844C15.6276 3.37749 15.7983 2.92517 16.1139 2.58154C16.4296 2.23791 16.8659 2.02956 17.3315 2C17.5663 2.00095 17.7984 2.05053 18.0131 2.14562C18.2278 2.24071 18.4204 2.37924 18.5789 2.55249C18.7374 2.72573 18.8583 2.92993 18.934 3.15221C19.0096 3.37449 19.0384 3.61004 19.0185 3.844V13.344C19.0005 13.727 19.1245 14.102 19.3665 14.399C19.5162 14.5651 19.7098 14.6856 19.9249 14.7464C20.1401 14.8073 20.368 14.8061 20.5825 14.743C20.7755 14.686 20.9555 14.595 21.1155 14.474C21.1695 14.435 21.2155 14.398 21.2455 14.374L21.2855 14.337L21.2965 14.328C21.9946 13.7458 22.7589 13.2481 23.5735 12.845C23.952 12.6606 24.3849 12.6211 24.7905 12.734C25.1395 12.809 25.4545 12.993 25.6905 13.26C25.9685 13.648 26.0865 14.128 26.0215 14.601C26.0067 14.7992 25.9527 14.9925 25.8626 15.1697C25.7724 15.3468 25.648 15.5043 25.4965 15.633L25.0845 15.923Z" fill="#BBA9EF" stroke="black" stroke-width="2" mask="url(#path-1-inside-1_297_519)"/>
</svg>
