<svg width="29" height="29" viewBox="0 0 29 29" fill="none" xmlns="http://www.w3.org/2000/svg">
<path d="M13.5004 11.8L10.0553 10.45L5.74889 14.5M20.3906 24.602C19.4202 25.6555 18.144 26.513 16.6675 27.1038C15.1909 27.6946 13.5563 28.0018 11.8984 28C6.12268 28 1.4425 24.3482 1.4425 19.8433C1.4425 18.662 1.725 17.5388 2.30378 16.525M15.4813 9.1L14.1825 11.5921C12.863 14.1287 12.2033 15.3964 12.9543 16.2982C13.7054 17.2 15.421 17.2 18.8524 17.2C20.0478 17.2 21.2019 16.957 21.8668 17.8696L27.2808 25.3M17.8068 6.4C16.8931 6.4 16.0168 6.11554 15.3707 5.60919C14.7246 5.10284 14.3617 4.41608 14.3617 3.7C14.3617 2.98391 14.7246 2.29716 15.3707 1.79081C16.0168 1.28446 16.8931 1 17.8068 1C18.7205 1 19.5967 1.28446 20.2428 1.79081C20.8889 2.29716 21.2519 2.98391 21.2519 3.7C21.2519 4.41608 20.8889 5.10284 20.2428 5.60919C19.5967 6.11554 18.7205 6.4 17.8068 6.4Z" stroke="#E0D9F7" stroke-width="2" stroke-linecap="round" stroke-linejoin="round"/>
</svg>
